# xmcd CD database file
#
# Track frame offsets:
#	150
#	12278
#	31990
#	65043
#	80410
#	93725
#	127188
#	146865
#	166118
#	167793
#	187220
#	203515
#	224810
#	235780
#	271330
#
# Disc length: 3736 seconds
#
# Revision: 1
# Processed by: cddbd v1.4PL0 Copyright (c) Steve Scherf et al.
# Submitted via: Feurio! 1.65 - http://www.feurio.com
#
DISCID=e30e960f
DTITLE=Johnny Nitro and The Door Slammers - Car Fixin' Blues
DYEAR=1993
DGENRE=blues
TTITLE0=Swamp Thang
TTITLE1=One More Nite
TTITLE2=Car Fixin' Blues
TTITLE3=Little Girl
TTITLE4=Mother In Law
TTITLE5=Boogie Man
TTITLE6=He Knows The Rules
TTITLE7=She's Got That Stuff
TTITLE8=Jazz In B-Flat Demolished
TTITLE9=Heart Detective
TTITLE10=Big Bess
TTITLE11=Treat Me So Low Down
TTITLE12=Honey Bee
TTITLE13=Count Down
TTITLE14=Twister
EXTD=C 1993 The Saloon Recordings
EXTT0=
EXTT1=
EXTT2=
EXTT3=
EXTT4=
EXTT5=
EXTT6=
EXTT7=
EXTT8=
EXTT9=
EXTT10=
EXTT11=
EXTT12=
EXTT13=
EXTT14=
PLAYORDER=
